<svg width="1500" height="1500" viewBox="0 0 1500 1500" fill="none" xmlns="http://www.w3.org/2000/svg">
<circle cx="749.5" cy="749.5" r="595" fill="#FCFDFE" stroke="#141414" stroke-width="29"/>
<path d="M917.311 610.519H574.649C519.421 610.519 474.649 655.291 474.649 710.519V859.175V1107.83" stroke="#141414" stroke-width="75"/>
<path d="M917.311 610.519H574.649C519.421 610.519 474.649 655.291 474.649 710.519V859.175V1107.83" stroke="#FCFDFE" stroke-width="18"/>
<circle cx="474.65" cy="1108.19" r="47.1496" fill="#FF8876" stroke="#141414" stroke-width="15"/>
<circle cx="917.675" cy="610.519" r="47.1496" fill="#FF8876" stroke="#141414" stroke-width="15"/>
<path d="M474.649 392.677H915.128C1075.77 392.677 1081.01 582.281 1080.94 609.474C1080.93 611.703 1080.93 613.705 1080.94 615.935C1081 642.805 1075.65 828.286 915.128 828.286C742.073 828.286 797.576 828.286 655.722 828.286" stroke="#141414" stroke-width="75"/>
<path d="M475 392.677H915.478C1076.12 392.677 1081.36 582.281 1081.29 609.474C1081.28 611.703 1081.28 613.705 1081.29 615.935C1081.36 642.805 1076 828.286 915.478 828.286C742.423 828.286 797.926 828.286 656.072 828.286" stroke="#FCFDFE" stroke-width="18"/>
<circle cx="474.65" cy="392.65" r="47.1496" fill="#FF8876" stroke="#141414" stroke-width="15"/>
<circle cx="646.613" cy="828.389" r="47.1496" fill="#FF8876" stroke="#141414" stroke-width="15"/>
</svg>
