<svg width="5999" height="1500" viewBox="0 0 5999 1500" fill="none" xmlns="http://www.w3.org/2000/svg">
<circle cx="1120.5" cy="749.5" r="595" fill="#FCFDFE" stroke="#141414" stroke-width="29"/>
<path d="M1288.31 610.519H945.649C890.421 610.519 845.649 655.291 845.649 710.519V859.175V1107.83" stroke="#141414" stroke-width="75"/>
<path d="M1288.31 610.519H945.649C890.421 610.519 845.649 655.291 845.649 710.519V859.175V1107.83" stroke="#FCFDFE" stroke-width="18"/>
<circle cx="845.65" cy="1108.19" r="47.1496" fill="#FF8876" stroke="#141414" stroke-width="15"/>
<circle cx="1288.68" cy="610.519" r="47.1496" fill="#FF8876" stroke="#141414" stroke-width="15"/>
<path d="M845.649 392.677H1286.13C1446.77 392.677 1452.01 582.281 1451.94 609.474C1451.93 611.703 1451.93 613.705 1451.94 615.935C1452 642.805 1446.65 828.286 1286.13 828.286C1113.07 828.286 1168.58 828.286 1026.72 828.286" stroke="#141414" stroke-width="75"/>
<path d="M846 392.677H1286.48C1447.12 392.677 1452.36 582.281 1452.29 609.474C1452.28 611.703 1452.28 613.705 1452.29 615.935C1452.36 642.805 1447 828.286 1286.48 828.286C1113.42 828.286 1168.93 828.286 1027.07 828.286" stroke="#FCFDFE" stroke-width="18"/>
<circle cx="845.65" cy="392.65" r="47.1496" fill="#FF8876" stroke="#141414" stroke-width="15"/>
<circle cx="1017.61" cy="828.389" r="47.1496" fill="#FF8876" stroke="#141414" stroke-width="15"/>
<path d="M2482.33 638.576C2482.33 680.219 2472.77 718.448 2453.66 753.264C2434.54 787.397 2405.19 815.045 2365.59 836.208C2326 857.371 2276.85 867.952 2218.14 867.952H2109.59V1126H1934.49V407.152H2218.14C2275.48 407.152 2323.95 417.051 2363.54 436.848C2403.14 456.645 2432.83 483.952 2452.63 518.768C2472.43 553.584 2482.33 593.52 2482.33 638.576ZM2204.82 728.688C2238.27 728.688 2263.19 720.837 2279.58 705.136C2295.96 689.435 2304.15 667.248 2304.15 638.576C2304.15 609.904 2295.96 587.717 2279.58 572.016C2263.19 556.315 2238.27 548.464 2204.82 548.464H2109.59V728.688H2204.82ZM2538.67 839.28C2538.67 780.571 2549.59 729.029 2571.44 684.656C2593.97 640.283 2624.35 606.149 2662.58 582.256C2700.81 558.363 2743.47 546.416 2790.58 546.416C2830.85 546.416 2866.01 554.608 2896.05 570.992C2926.77 587.376 2950.32 608.88 2966.7 635.504V554.608H3141.81V1126H2966.7V1045.1C2949.64 1071.73 2925.74 1093.23 2895.02 1109.62C2864.99 1126 2829.83 1134.19 2789.55 1134.19C2743.13 1134.19 2700.81 1122.25 2662.58 1098.35C2624.35 1073.78 2593.97 1039.3 2571.44 994.928C2549.59 949.872 2538.67 897.989 2538.67 839.28ZM2966.7 840.304C2966.7 796.613 2954.42 762.139 2929.84 736.88C2905.95 711.621 2876.59 698.992 2841.78 698.992C2806.96 698.992 2777.26 711.621 2752.69 736.88C2728.79 761.456 2716.85 795.589 2716.85 839.28C2716.85 882.971 2728.79 917.787 2752.69 943.728C2777.26 968.987 2806.96 981.616 2841.78 981.616C2876.59 981.616 2905.95 968.987 2929.84 943.728C2954.42 918.469 2966.7 883.995 2966.7 840.304ZM3443.59 649.84C3464.07 618.437 3489.67 593.861 3520.39 576.112C3551.11 557.68 3585.25 548.464 3622.79 548.464V733.808H3574.66C3530.97 733.808 3498.21 743.365 3476.36 762.48C3454.51 780.912 3443.59 813.68 3443.59 860.784V1126H3268.49V554.608H3443.59V649.84ZM3671.67 839.28C3671.67 780.571 3682.59 729.029 3704.44 684.656C3726.97 640.283 3757.35 606.149 3795.58 582.256C3833.81 558.363 3876.47 546.416 3923.58 546.416C3963.85 546.416 3999.01 554.608 4029.05 570.992C4059.77 587.376 4083.32 608.88 4099.7 635.504V554.608H4274.81V1126H4099.7V1045.1C4082.64 1071.73 4058.74 1093.23 4028.02 1109.62C3997.99 1126 3962.83 1134.19 3922.55 1134.19C3876.13 1134.19 3833.81 1122.25 3795.58 1098.35C3757.35 1073.78 3726.97 1039.3 3704.44 994.928C3682.59 949.872 3671.67 897.989 3671.67 839.28ZM4099.7 840.304C4099.7 796.613 4087.42 762.139 4062.84 736.88C4038.95 711.621 4009.59 698.992 3974.78 698.992C3939.96 698.992 3910.26 711.621 3885.69 736.88C3861.79 761.456 3849.85 795.589 3849.85 839.28C3849.85 882.971 3861.79 917.787 3885.69 943.728C3910.26 968.987 3939.96 981.616 3974.78 981.616C4009.59 981.616 4038.95 968.987 4062.84 943.728C4087.42 918.469 4099.7 883.995 4099.7 840.304ZM4949.33 638.576C4949.33 680.219 4939.77 718.448 4920.66 753.264C4901.54 787.397 4872.19 815.045 4832.59 836.208C4793 857.371 4743.85 867.952 4685.14 867.952H4576.59V1126H4401.49V407.152H4685.14C4742.48 407.152 4790.95 417.051 4830.54 436.848C4870.14 456.645 4899.83 483.952 4919.63 518.768C4939.43 553.584 4949.33 593.52 4949.33 638.576ZM4671.82 728.688C4705.27 728.688 4730.19 720.837 4746.58 705.136C4762.96 689.435 4771.15 667.248 4771.15 638.576C4771.15 609.904 4762.96 587.717 4746.58 572.016C4730.19 556.315 4705.27 548.464 4671.82 548.464H4576.59V728.688H4671.82ZM5300.58 1134.19C5244.61 1134.19 5194.09 1122.25 5149.03 1098.35C5104.66 1074.46 5069.5 1040.33 5043.56 995.952C5018.3 951.579 5005.67 899.696 5005.67 840.304C5005.67 781.595 5018.64 730.053 5044.58 685.68C5070.53 640.624 5106.02 606.149 5151.08 582.256C5196.14 558.363 5246.65 546.416 5302.63 546.416C5358.61 546.416 5409.13 558.363 5454.18 582.256C5499.24 606.149 5534.74 640.624 5560.68 685.68C5586.62 730.053 5599.59 781.595 5599.59 840.304C5599.59 899.013 5586.28 950.896 5559.66 995.952C5533.71 1040.33 5497.87 1074.46 5452.14 1098.35C5407.08 1122.25 5356.56 1134.19 5300.58 1134.19ZM5300.58 982.64C5334.03 982.64 5362.37 970.352 5385.58 945.776C5409.47 921.2 5421.42 886.043 5421.42 840.304C5421.42 794.565 5409.81 759.408 5386.6 734.832C5364.07 710.256 5336.08 697.968 5302.63 697.968C5268.5 697.968 5240.17 710.256 5217.64 734.832C5195.11 758.725 5183.85 793.883 5183.85 840.304C5183.85 886.043 5194.77 921.2 5216.62 945.776C5239.14 970.352 5267.13 982.64 5300.58 982.64Z" fill="#141414"/>
</svg>
