<svg width="3247" height="1373" viewBox="0 0 3247 1373" fill="none" xmlns="http://www.w3.org/2000/svg">
<path d="M1524 516H1663.5C1691.17 516 1712 520.5 1726 529.5C1740 538.167 1749.33 550.667 1754 567C1759 583.333 1761.5 605.167 1761.5 632.5C1761.5 658.5 1759.17 679.667 1754.5 696C1750.17 712.333 1740.83 725.333 1726.5 735C1712.17 744.667 1691 749.5 1663 749.5H1601.5V860H1524V516ZM1636.5 685C1651.17 685 1661.67 683.833 1668 681.5C1674.33 678.833 1678.5 674.167 1680.5 667.5C1682.5 660.5 1683.5 648.833 1683.5 632.5C1683.5 616.167 1682.5 604.667 1680.5 598C1678.5 591 1674.33 586.333 1668 584C1661.67 581.667 1651.17 580.5 1636.5 580.5H1601.5V685H1636.5ZM1977.08 860L1959.58 791H1858.08L1841.58 860H1763.58L1855.58 516H1964.58L2056.08 860H1977.08ZM1910.08 586H1907.08L1873.58 727H1944.08L1910.08 586ZM2259.86 860L2219.86 739.5H2169.86V860H2092.36V516H2233.86C2262.19 516 2283.53 520.333 2297.86 529C2312.19 537.333 2321.69 549.333 2326.36 565C2331.36 580.667 2333.86 601.5 2333.86 627.5C2333.86 651.833 2331.19 672.667 2325.86 690C2320.53 707 2309.69 719.5 2293.36 727.5L2341.36 860H2259.86ZM2208.86 675.5C2223.53 675.5 2233.86 674.333 2239.86 672C2246.19 669.667 2250.36 665.5 2252.36 659.5C2254.36 653.167 2255.36 642.667 2255.36 628C2255.36 613 2254.36 602.5 2252.36 596.5C2250.69 590.167 2246.69 586 2240.36 584C2234.36 581.667 2224.03 580.5 2209.36 580.5H2169.86V675.5H2208.86ZM2573.76 860L2556.26 791H2454.76L2438.26 860H2360.26L2452.26 516H2561.26L2652.76 860H2573.76ZM2506.76 586H2503.76L2470.26 727H2540.76L2506.76 586Z" fill="#FBFFF5"/>
<path d="M1524 516H1663.5C1691.17 516 1712 520.5 1726 529.5C1740 538.167 1749.33 550.667 1754 567C1759 583.333 1761.5 605.167 1761.5 632.5C1761.5 658.5 1759.17 679.667 1754.5 696C1750.17 712.333 1740.83 725.333 1726.5 735C1712.17 744.667 1691 749.5 1663 749.5H1601.5V860H1524V516ZM1636.5 685C1651.17 685 1661.67 683.833 1668 681.5C1674.33 678.833 1678.5 674.167 1680.5 667.5C1682.5 660.5 1683.5 648.833 1683.5 632.5C1683.5 616.167 1682.5 604.667 1680.5 598C1678.5 591 1674.33 586.333 1668 584C1661.67 581.667 1651.17 580.5 1636.5 580.5H1601.5V685H1636.5ZM1977.08 860L1959.58 791H1858.08L1841.58 860H1763.58L1855.58 516H1964.58L2056.08 860H1977.08ZM1910.08 586H1907.08L1873.58 727H1944.08L1910.08 586ZM2259.86 860L2219.86 739.5H2169.86V860H2092.36V516H2233.86C2262.19 516 2283.53 520.333 2297.86 529C2312.19 537.333 2321.69 549.333 2326.36 565C2331.36 580.667 2333.86 601.5 2333.86 627.5C2333.86 651.833 2331.19 672.667 2325.86 690C2320.53 707 2309.69 719.5 2293.36 727.5L2341.36 860H2259.86ZM2208.86 675.5C2223.53 675.5 2233.86 674.333 2239.86 672C2246.19 669.667 2250.36 665.5 2252.36 659.5C2254.36 653.167 2255.36 642.667 2255.36 628C2255.36 613 2254.36 602.5 2252.36 596.5C2250.69 590.167 2246.69 586 2240.36 584C2234.36 581.667 2224.03 580.5 2209.36 580.5H2169.86V675.5H2208.86ZM2573.76 860L2556.26 791H2454.76L2438.26 860H2360.26L2452.26 516H2561.26L2652.76 860H2573.76ZM2506.76 586H2503.76L2470.26 727H2540.76L2506.76 586Z" fill="#FBFFF5"/>
<path d="M2689.04 516H2828.54C2856.21 516 2877.04 520.5 2891.04 529.5C2905.04 538.167 2914.37 550.667 2919.04 567C2924.04 583.333 2926.54 605.167 2926.54 632.5C2926.54 658.5 2924.21 679.667 2919.54 696C2915.21 712.333 2905.87 725.333 2891.54 735C2877.21 744.667 2856.04 749.5 2828.04 749.5H2766.54V860H2689.04V516ZM2801.54 685C2816.21 685 2826.71 683.833 2833.04 681.5C2839.37 678.833 2843.54 674.167 2845.54 667.5C2847.54 660.5 2848.54 648.833 2848.54 632.5C2848.54 616.167 2847.54 604.667 2845.54 598C2843.54 591 2839.37 586.333 2833.04 584C2826.71 581.667 2816.21 580.5 2801.54 580.5H2766.54V685H2801.54ZM3093.73 864C3052.06 864 3022.23 859 3004.23 849C2986.56 838.667 2975.4 822.333 2970.73 800C2966.4 777.333 2964.23 740 2964.23 688C2964.23 636 2966.4 598.833 2970.73 576.5C2975.4 553.833 2986.56 537.5 3004.23 527.5C3022.23 517.167 3052.06 512 3093.73 512C3135.73 512 3165.56 517.167 3183.23 527.5C3201.23 537.5 3212.4 553.667 3216.73 576C3221.06 598.333 3223.23 635.667 3223.23 688C3223.23 740.333 3221.06 777.667 3216.73 800C3212.4 822.333 3201.23 838.667 3183.23 849C3165.56 859 3135.73 864 3093.73 864ZM3093.73 799.5C3111.73 799.5 3123.73 797.667 3129.73 794C3136.06 790.333 3140.06 781.667 3141.73 768C3143.4 754.333 3144.23 727.667 3144.23 688C3144.23 648.333 3143.4 621.667 3141.73 608C3140.06 594.333 3136.06 585.667 3129.73 582C3123.73 578.333 3111.73 576.5 3093.73 576.5C3075.73 576.5 3063.56 578.333 3057.23 582C3051.23 585.667 3047.4 594.333 3045.73 608C3044.06 621.667 3043.23 648.333 3043.23 688C3043.23 727.667 3044.06 754.333 3045.73 768C3047.4 781.667 3051.23 790.333 3057.23 794C3063.56 797.667 3075.73 799.5 3093.73 799.5Z" fill="#FBFFF5"/>
<path d="M2689.04 516H2828.54C2856.21 516 2877.04 520.5 2891.04 529.5C2905.04 538.167 2914.37 550.667 2919.04 567C2924.04 583.333 2926.54 605.167 2926.54 632.5C2926.54 658.5 2924.21 679.667 2919.54 696C2915.21 712.333 2905.87 725.333 2891.54 735C2877.21 744.667 2856.04 749.5 2828.04 749.5H2766.54V860H2689.04V516ZM2801.54 685C2816.21 685 2826.71 683.833 2833.04 681.5C2839.37 678.833 2843.54 674.167 2845.54 667.5C2847.54 660.5 2848.54 648.833 2848.54 632.5C2848.54 616.167 2847.54 604.667 2845.54 598C2843.54 591 2839.37 586.333 2833.04 584C2826.71 581.667 2816.21 580.5 2801.54 580.5H2766.54V685H2801.54ZM3093.73 864C3052.06 864 3022.23 859 3004.23 849C2986.56 838.667 2975.4 822.333 2970.73 800C2966.4 777.333 2964.23 740 2964.23 688C2964.23 636 2966.4 598.833 2970.73 576.5C2975.4 553.833 2986.56 537.5 3004.23 527.5C3022.23 517.167 3052.06 512 3093.73 512C3135.73 512 3165.56 517.167 3183.23 527.5C3201.23 537.5 3212.4 553.667 3216.73 576C3221.06 598.333 3223.23 635.667 3223.23 688C3223.23 740.333 3221.06 777.667 3216.73 800C3212.4 822.333 3201.23 838.667 3183.23 849C3165.56 859 3135.73 864 3093.73 864ZM3093.73 799.5C3111.73 799.5 3123.73 797.667 3129.73 794C3136.06 790.333 3140.06 781.667 3141.73 768C3143.4 754.333 3144.23 727.667 3144.23 688C3144.23 648.333 3143.4 621.667 3141.73 608C3140.06 594.333 3136.06 585.667 3129.73 582C3123.73 578.333 3111.73 576.5 3093.73 576.5C3075.73 576.5 3063.56 578.333 3057.23 582C3051.23 585.667 3047.4 594.333 3045.73 608C3044.06 621.667 3043.23 648.333 3043.23 688C3043.23 727.667 3044.06 754.333 3045.73 768C3047.4 781.667 3051.23 790.333 3057.23 794C3063.56 797.667 3075.73 799.5 3093.73 799.5Z" fill="#FF9270"/>
<circle cx="686.5" cy="686.5" r="674" fill="#1E1B27" stroke="white" stroke-width="25"/>
<path d="M582.139 711.568H791.666C847.877 711.568 889.284 711.578 922.008 714.251C954.585 716.913 977.454 722.152 996.789 732.004C1032.07 749.98 1060.75 778.664 1078.73 813.945C1088.58 833.28 1093.82 856.149 1096.48 888.726C1099.16 921.449 1099.17 962.856 1099.17 1019.07V1049.34H274.639V1019.07C274.639 962.856 274.648 921.449 277.322 888.726C279.984 856.149 285.223 833.28 295.075 813.945C313.051 778.664 341.735 749.98 377.015 732.004C396.351 722.152 419.22 716.913 451.797 714.251C484.52 711.578 525.927 711.568 582.139 711.568Z" fill="#FF735C" stroke="#FF735C" stroke-width="25"/>
<path d="M363 514H449V736H363V514Z" fill="#FF735C"/>
<path d="M925 514H1012V736H925V514Z" fill="#FF735C"/>
<path d="M262.139 438.55C262.139 385.667 305.009 342.797 357.892 342.797H1015.91C1068.8 342.797 1111.67 385.667 1111.67 438.55V438.55C1111.67 480.46 1077.69 514.435 1035.78 514.435H338.023C296.113 514.435 262.139 480.46 262.139 438.55V438.55Z" fill="#FF735C"/>
<rect x="727.781" y="303.813" width="27.0723" height="45.4814" fill="#FF735C"/>
<rect x="511.203" y="303.813" width="27.0723" height="45.4814" fill="#FF735C"/>
<rect x="944.359" y="303.813" width="27.0723" height="45.4814" fill="#FF735C"/>
<rect x="402.914" y="303.813" width="27.0723" height="45.4814" fill="#FF735C"/>
<rect x="836.07" y="303.813" width="27.0723" height="45.4814" fill="#FF735C"/>
<rect x="619.492" y="303.813" width="27.0723" height="45.4814" fill="#FF735C"/>
<circle cx="408.331" cy="838.761" r="67.6806" fill="white"/>
<circle cx="966.019" cy="838.761" r="67.6806" fill="white"/>
<path d="M503.082 752.671L687.173 675.786L871.265 752.671V970.873H503.082V752.671Z" fill="#B23531"/>
<path d="M262.139 1010.94H1111.67V1071.04H262.139V1010.94Z" fill="#6D2121"/>
<circle cx="416.451" cy="303.813" r="31.8183" fill="white" stroke="#FF735C" stroke-width="10"/>
<circle cx="524.74" cy="303.813" r="31.8183" fill="white" stroke="#FF735C" stroke-width="10"/>
<circle cx="633.029" cy="303.813" r="31.8183" fill="white" stroke="#FF735C" stroke-width="10"/>
<circle cx="741.318" cy="303.813" r="31.8183" fill="white" stroke="#FF735C" stroke-width="10"/>
<circle cx="849.607" cy="303.813" r="31.8183" fill="white" stroke="#FF735C" stroke-width="10"/>
<circle cx="957.896" cy="303.813" r="31.8183" fill="white" stroke="#FF735C" stroke-width="10"/>
<rect x="954.648" y="705.024" width="48.1886" height="20.5749" fill="#FF735C"/>
<rect x="371.51" y="705.024" width="48.1886" height="20.5749" fill="#FF735C"/>
<rect x="703.209" y="798.487" width="20.4479" height="111.952" rx="10.224" fill="#FF735C" stroke="white" stroke-width="5"/>
<rect x="650.691" y="798.487" width="20.4479" height="111.952" rx="10.224" fill="#FF735C" stroke="white" stroke-width="5"/>
<rect x="550.729" y="811.147" width="18.9506" height="87.092" rx="9.47529" fill="white"/>
<rect x="751.064" y="811.147" width="18.9506" height="87.092" rx="9.47529" fill="white"/>
<rect x="603.789" y="811.147" width="18.9506" height="87.092" rx="9.47529" fill="white"/>
<rect x="804.127" y="811.147" width="18.9506" height="87.092" rx="9.47529" fill="white"/>
<circle cx="560.476" cy="811.147" r="15.9091" fill="#FF735C" stroke="white" stroke-width="5"/>
<circle cx="760.81" cy="811.147" r="15.9091" fill="#FF735C" stroke="white" stroke-width="5"/>
<circle cx="613.538" cy="811.147" r="15.9091" fill="#FF735C" stroke="white" stroke-width="5"/>
<circle cx="813.872" cy="811.147" r="15.9091" fill="#FF735C" stroke="white" stroke-width="5"/>
<circle cx="560.476" cy="898.32" r="15.9091" fill="#FF735C" stroke="white" stroke-width="5"/>
<circle cx="760.81" cy="898.32" r="15.9091" fill="#FF735C" stroke="white" stroke-width="5"/>
<circle cx="613.538" cy="898.32" r="15.9091" fill="#FF735C" stroke="white" stroke-width="5"/>
<circle cx="813.872" cy="898.32" r="15.9091" fill="#FF735C" stroke="white" stroke-width="5"/>
</svg>
